<?xml version="1.0" standalone="no"?>
<!DOCTYPE svg PUBLIC "-//W3C//DTD SVG 20010904//EN"
  "http://www.w3.org/TR/2001/REC-SVG-20010904/DTD/svg10.dtd">
<svg version="1.0" xmlns="http://www.w3.org/2000/svg"
     width="4096.000000pt" height="4096.000000pt" viewBox="0 0 4096.000000 4096.000000"
     preserveAspectRatio="xMidYMid meet">

  <g transform="translate(0.000000,4096.000000) scale(0.100000,-0.100000)"
     fill="#000000" stroke="none">
    <path d="M16590 40073 c-279 -45 -526 -145 -721 -289 -342 -254 -575 -609
-648 -988 -37 -188 -41 -376 -41 -1767 0 -1065 -3 -1349 -12 -1357 -7 -5 -29
-13 -48 -17 -131 -27 -1024 -392 -1445 -590 -55 -26 -120 -56 -144 -67 l-45
-19 -985 984 c-542 541 -1006 1002 -1031 1024 -136 119 -260 203 -405 275
-193 96 -337 134 -570 150 -451 32 -823 -91 -1199 -395 -137 -111 -5224 -5198
-5332 -5332 -216 -268 -319 -477 -382 -775 -23 -110 -26 -148 -26 -315 0 -168
3 -205 27 -318 59 -279 186 -532 385 -767 44 -52 516 -533 1050 -1069 l969
-974 -68 -144 c-158 -331 -347 -769 -464 -1073 -36 -96 -82 -213 -100 -260
-18 -47 -38 -103 -44 -125 -6 -22 -17 -49 -25 -60 -14 -20 -33 -20 -1408 -20
-1466 0 -1497 -1 -1725 -46 -241 -47 -421 -130 -628 -287 -91 -70 -262 -240
-308 -307 -22 -33 -53 -74 -68 -92 -40 -46 -153 -283 -193 -403 -19 -58 -43
-143 -53 -190 -17 -81 -18 -256 -18 -3980 0 -3751 1 -3898 18 -3979 140 -635
591 -1110 1202 -1265 182 -46 272 -49 1670 -52 721 -2 1359 -7 1418 -11 l108
-8 43 -125 c111 -322 402 -1023 556 -1336 l98 -201 -1002 -1004 c-1134 -1136
-1145 -1148 -1286 -1443 -109 -228 -148 -387 -157 -641 -5 -162 -5 -167 41
-415 17 -90 81 -271 130 -366 58 -115 145 -235 276 -386 149 -172 5142 -5167
5280 -5283 127 -107 199 -153 365 -236 260 -130 440 -173 720 -172 153 1 199
5 310 27 163 33 232 55 370 121 291 137 345 186 1474 1317 532 532 972 968
978 968 6 0 59 -23 119 -51 139 -65 549 -250 719 -323 108 -47 610 -240 715
-276 52 -17 102 -38 110 -46 13 -13 16 -195 21 -1467 5 -952 11 -1482 18
-1540 40 -327 192 -642 435 -904 54 -58 293 -253 310 -253 3 0 27 -14 53 -30
102 -65 385 -163 548 -191 119 -20 156 -20 3890 -19 2470 0 3808 4 3880 10
187 18 385 75 555 160 178 89 417 279 533 423 175 219 261 389 322 639 53 215
58 355 61 1832 3 1080 6 1352 16 1362 7 6 92 40 188 74 293 104 803 316 1232
511 119 55 226 99 236 99 12 0 387 -369 1003 -986 541 -542 1022 -1016 1069
-1054 257 -205 532 -332 804 -371 400 -58 751 12 1096 219 198 119 219 139
2930 2851 1607 1608 2644 2653 2691 2711 128 161 195 280 267 475 73 198 87
287 86 545 0 207 -2 234 -27 343 -36 158 -59 221 -128 357 -76 150 -167 279
-294 415 -57 61 -516 522 -1020 1025 -1019 1016 -965 962 -965 972 0 4 33 76
74 160 41 84 95 200 119 258 25 58 72 164 105 235 95 208 241 576 338 853 29
83 58 161 64 172 10 19 31 19 1513 23 1688 3 1521 -4 1784 82 159 53 256 99
373 180 200 137 310 243 454 440 118 160 213 390 251 607 34 192 36 383 33
4118 l-3 3705 -23 115 c-64 322 -206 602 -417 819 -201 207 -384 328 -640 424
-101 37 -184 57 -315 73 -186 24 -1067 36 -2075 29 -750 -6 -913 -4 -927 7 -9
7 -46 96 -83 198 -135 376 -269 694 -575 1371 -56 124 -57 119 40 205 132 116
1821 1813 1929 1938 133 153 194 241 263 379 61 122 89 204 126 357 25 108 27
130 27 350 0 194 -3 249 -19 315 -48 207 -134 415 -233 563 -27 40 -97 130
-156 200 -130 155 -5070 5096 -5283 5283 -163 144 -260 214 -382 274 -262 129
-499 180 -797 172 -397 -12 -633 -105 -1007 -395 -60 -46 -443 -422 -1074
-1053 l-981 -981 -86 36 c-48 20 -160 70 -249 112 -412 193 -544 249 -988 418
-144 56 -241 89 -330 114 l-25 7 -7 1355 c-7 1498 -13 1676 -63 1858 -77 277
-223 528 -422 724 -266 263 -522 394 -898 459 -107 18 -221 19 -3950 18 -2112
-1 -3851 -4 -3865 -6z m5560 -3262 l355 -6 -3 -805 c-2 -443 1 -1025 7 -1295
10 -467 11 -495 35 -596 39 -167 63 -234 137 -384 210 -426 525 -689 1034
-859 110 -37 137 -46 445 -136 347 -102 412 -123 845 -283 282 -103 583 -233
1050 -453 85 -40 395 -203 555 -291 74 -41 182 -101 240 -133 361 -200 715
-291 1012 -261 398 41 613 125 918 359 50 39 433 413 941 919 l855 854 1430
-1430 c786 -787 1430 -1436 1432 -1444 1 -7 -73 -83 -165 -169 -223 -208
-1425 -1416 -1534 -1543 -118 -137 -190 -244 -265 -395 -118 -239 -158 -416
-158 -700 0 -285 36 -440 166 -725 33 -71 95 -193 138 -270 228 -409 323 -594
520 -1025 111 -241 142 -312 217 -495 103 -255 273 -736 338 -955 75 -257 181
-601 215 -698 67 -189 176 -376 312 -533 146 -169 287 -275 513 -386 138 -67
221 -95 355 -119 52 -9 115 -21 140 -26 27 -6 550 -12 1303 -15 l1257 -5 0
-2028 0 -2029 -1272 -3 -1273 -4 -115 -27 c-171 -39 -234 -60 -353 -112 -119
-52 -245 -128 -341 -204 -100 -80 -257 -250 -325 -352 -105 -157 -224 -424
-279 -629 -10 -35 -89 -297 -139 -460 -223 -729 -575 -1558 -960 -2265 -298
-547 -345 -652 -383 -865 -49 -270 -50 -459 -6 -675 55 -265 153 -462 362
-725 37 -47 439 -457 893 -913 455 -455 828 -832 830 -838 2 -6 -136 -151
-305 -322 -170 -172 -487 -491 -704 -711 -217 -220 -417 -421 -445 -448 -27
-27 -239 -237 -470 -466 -231 -229 -510 -505 -619 -612 -109 -107 -216 -219
-238 -248 -27 -37 -45 -52 -58 -50 -11 2 -342 325 -737 718 -985 981 -1028
1021 -1216 1147 -96 64 -277 154 -368 183 -149 49 -246 63 -456 68 -190 4
-211 2 -335 -23 -253 -51 -428 -124 -833 -350 -227 -127 -708 -366 -1000 -498
-448 -201 -1020 -411 -1475 -542 -543 -156 -714 -224 -950 -380 -328 -217
-583 -595 -681 -1010 -20 -85 -21 -130 -31 -880 -5 -434 -7 -1013 -4 -1287 l5
-496 -22 -5 c-12 -3 -928 -6 -2034 -7 l-2013 -1 -2 1278 c-3 1189 -4 1285 -21
1383 -27 151 -61 259 -123 387 -124 255 -296 468 -494 615 -207 152 -390 228
-985 408 -586 177 -947 308 -1390 503 -507 224 -711 324 -1147 565 -485 268
-636 325 -948 355 -191 19 -322 7 -558 -49 -216 -51 -402 -145 -607 -308 -60
-48 -437 -417 -944 -923 -824 -823 -845 -842 -865 -825 -33 29 -2846 2845
-2846 2849 0 2 396 401 881 885 612 613 896 905 933 957 139 198 226 385 284
610 26 101 27 117 27 351 0 241 -1 247 -32 375 -17 72 -41 155 -52 186 -33 86
-197 410 -327 644 -103 187 -314 595 -314 609 0 3 -52 119 -116 258 -112 243
-158 352 -229 538 -156 413 -231 623 -280 785 -219 725 -278 893 -378 1070
-170 300 -518 587 -857 707 -58 20 -209 55 -300 68 -130 20 -978 32 -1772 27
l-818 -6 0 2029 0 2029 1218 4 1217 3 165 27 c91 14 201 37 245 52 238 77 572
297 723 476 169 200 278 408 370 709 255 832 262 852 420 1275 93 250 140 359
314 740 160 347 307 635 495 968 169 299 236 462 289 707 27 122 27 507 1 629
-27 123 -64 234 -113 337 -46 97 -186 313 -262 404 -25 30 -426 436 -891 903
l-845 847 109 108 c61 59 704 703 1429 1430 726 727 1322 1322 1325 1322 3 0
371 -365 816 -811 446 -446 857 -851 914 -901 181 -157 407 -288 599 -348 126
-39 343 -70 488 -70 185 0 409 42 572 106 117 46 378 179 637 324 409 228
1022 511 1510 697 373 141 450 167 1050 349 372 113 499 161 650 245 185 102
319 210 437 352 222 266 314 455 377 777 21 103 21 128 21 1367 l0 1262 88 4
c159 6 3260 4 3622 -2z m-11340 -29521 c0 -5 -7 -10 -16 -10 -8 0 -12 5 -9 10
3 6 10 10 16 10 5 0 9 -4 9 -10z"/>
    <path d="M19995 30079 c-402 -7 -497 -17 -1100 -114 -439 -71 -1050 -222
-1441 -356 -614 -210 -797 -285 -1243 -509 -629 -314 -1198 -681 -1806 -1165
-349 -278 -934 -848 -1238 -1205 -98 -116 -326 -415 -519 -680 -346 -476 -610
-931 -917 -1580 -138 -290 -331 -797 -436 -1144 -33 -111 -154 -561 -189 -706
-74 -307 -159 -821 -208 -1260 -9 -83 -13 -321 -13 -865 0 -788 1 -821 50
-1175 8 -58 18 -125 21 -150 15 -125 97 -594 128 -730 64 -285 211 -816 280
-1017 124 -356 249 -675 343 -876 231 -491 352 -716 610 -1135 158 -257 201
-321 377 -561 261 -354 356 -478 400 -526 26 -27 93 -104 148 -170 129 -153
731 -754 908 -907 74 -64 155 -134 180 -157 25 -23 125 -101 224 -173 98 -73
243 -182 322 -241 227 -170 529 -363 938 -597 139 -79 776 -396 881 -437 163
-64 342 -132 400 -151 33 -11 150 -53 260 -94 110 -41 209 -77 220 -80 11 -3
72 -20 135 -38 288 -79 829 -210 965 -234 187 -31 436 -70 625 -96 620 -86
1627 -90 2300 -9 225 27 737 113 890 149 198 48 540 137 725 190 168 49 217
65 470 155 72 26 166 59 210 74 285 99 909 384 1190 543 118 67 512 303 644
385 187 117 681 483 886 657 734 621 1202 1130 1766 1921 75 105 136 199 359
555 108 173 198 334 268 480 40 85 120 250 177 365 149 303 231 503 372 905
184 525 328 1093 412 1625 103 655 113 787 112 1531 0 467 -11 827 -30 979 -6
44 -15 125 -21 180 -15 132 -105 679 -136 825 -36 170 -168 671 -225 860 -70
227 -258 742 -339 930 -124 283 -389 827 -464 950 -312 513 -450 721 -726
1090 -352 470 -881 1035 -1339 1431 -41 35 -117 101 -170 147 -87 76 -173 142
-406 314 -44 33 -150 112 -237 176 -143 107 -584 386 -852 540 -131 74 -598
306 -812 403 -155 69 -540 213 -854 319 -168 56 -574 168 -922 254 -191 47
-806 145 -1138 181 -217 24 -858 35 -1415 24z m680 -3249 c375 -26 565 -41
620 -50 33 -6 155 -26 270 -45 402 -66 736 -159 1190 -330 479 -180 899 -406
1365 -733 447 -313 762 -594 1107 -987 691 -786 1135 -1628 1397 -2645 24 -96
54 -224 66 -285 11 -60 27 -144 35 -186 66 -342 96 -909 76 -1432 -20 -526
-109 -1019 -281 -1572 -42 -133 -172 -485 -215 -580 -8 -16 -37 -82 -66 -145
-67 -149 -175 -367 -235 -472 -318 -561 -775 -1137 -1214 -1531 -74 -67 -137
-124 -140 -127 -29 -32 -203 -178 -299 -249 -884 -659 -1827 -1068 -2841
-1230 -352 -57 -619 -79 -1020 -84 -166 -3 -667 22 -755 38 -44 7 -109 17
-145 20 -36 4 -92 13 -125 20 -33 7 -89 16 -125 20 -129 14 -349 66 -650 155
-338 100 -620 211 -1046 410 -332 155 -916 535 -1214 789 -177 151 -404 359
-485 442 -447 464 -869 1060 -1135 1604 -155 315 -221 476 -335 807 -111 320
-200 668 -245 958 -17 107 -37 234 -45 283 -9 48 -20 169 -25 270 -6 100 -15
236 -21 302 -14 148 -14 395 1 495 6 41 15 161 20 266 5 105 11 202 15 215 3
13 14 83 26 154 11 72 28 184 39 251 59 371 267 1035 450 1434 172 375 310
622 544 975 201 302 349 489 615 772 442 473 878 816 1495 1177 321 188 715
364 1153 515 383 131 951 248 1398 287 406 35 551 40 780 24z"/>
  </g>
</svg>
